<svg width="111" height="42" viewBox="0 0 111 42" fill="none" xmlns="http://www.w3.org/2000/svg">
<g clip-path="url(#clip0_2258_1386)">
<path fill-rule="evenodd" clip-rule="evenodd" d="M45.1301 40.7362H106.425C108.407 40.7362 110.009 39.1211 110.009 37.1384V4.73162C110.009 2.73574 108.407 1.13379 106.425 1.13379H45.1301V40.7362Z" fill="white"/>
<path d="M106.754 0.910156H5.33145C2.77095 0.910156 0.696289 2.98482 0.696289 5.54532V36.4683C0.696289 39.0288 2.77095 41.1035 5.33145 41.1035H106.754C108.749 41.1035 110.378 39.4621 110.378 37.44V4.56051C110.378 2.53837 108.749 0.910156 106.754 0.910156ZM109.393 37.44C109.393 38.9106 108.211 40.1055 106.754 40.1055H45.7217V1.89496H106.754C108.211 1.89496 109.393 3.08987 109.393 4.56051V37.4269V37.44Z" fill="#231F20"/>
<path d="M23.2415 36.5875C31.8553 36.5875 38.8277 29.6151 38.8277 21.0013C38.8277 12.3875 31.8553 5.41504 23.2415 5.41504C14.6277 5.41504 7.65527 12.3875 7.65527 21.0013C7.65527 29.6151 14.6277 36.5875 23.2415 36.5875Z" fill="#231F20"/>
<path d="M23.2427 5.41406C31.8565 5.41406 38.829 12.3865 38.829 21.0003C38.829 29.6141 31.8565 36.5865 23.2427 36.5865C14.6289 36.5865 7.65649 29.6141 7.65649 21.0003C7.65649 12.3865 14.6289 5.41406 23.2427 5.41406ZM23.2427 4.44238C14.1168 4.44238 6.68481 11.8744 6.68481 21.0003C6.68481 30.1262 14.1168 37.5582 23.2427 37.5582C32.3686 37.5582 39.8006 30.1262 39.8006 21.0003C39.8006 16.5752 38.0805 12.4259 34.9554 9.30077C31.8303 6.17565 27.6678 4.45551 23.2559 4.45551L23.2427 4.44238Z" fill="white"/>
<path d="M12.4868 27.7401V14.3467H14.6665L17.1088 20.8333V14.3467H19.3673V27.6744H17.4239L14.9816 20.6757V27.7401H12.4736H12.4868Z" fill="white"/>
<path d="M23.687 27.8962C21.3891 27.8962 20.1286 26.3074 20.2336 23.7469H22.6234C22.6234 25.0206 22.6628 25.9004 23.7395 25.9004C24.2779 25.9004 24.5405 25.3489 24.5405 24.4429C24.5405 22.0399 20.4831 21.7773 20.4831 17.7987C20.4831 15.7109 21.4285 14.2402 23.8052 14.2402C25.7617 14.2402 26.8384 15.1463 26.8909 18.3108H24.7375C24.7375 16.9977 24.5011 16.1705 23.7658 16.1705C23.1355 16.1705 22.6759 16.6826 22.8204 17.5886C23.188 19.9915 26.9828 20.5167 27.0616 24.2065C27.1273 27.4104 24.7243 27.8831 23.6739 27.8831L23.687 27.8962Z" fill="white"/>
<path d="M28.0473 27.6744V14.3467H33.5754V16.3951H30.6735V19.8091H32.7481V22.107H30.6735V27.6744H28.0342H28.0473Z" fill="white"/>
<path d="M57.9336 13.0553V14.4603C57.9336 16.1542 56.9882 17.1259 55.1762 17.1259C53.3641 17.1259 52.4187 16.1542 52.4187 14.4603V8.95852C52.4187 7.26465 53.3641 6.29297 55.1762 6.29297C56.9882 6.29297 57.9336 7.26465 57.9336 8.95852V9.98272H56.1872V8.85347C56.1872 8.09189 55.8196 7.81614 55.2287 7.81614C54.6378 7.81614 54.2701 8.10502 54.2701 8.85347V14.5654C54.2701 15.3269 54.6378 15.5896 55.2287 15.5896C55.8196 15.5896 56.1872 15.3138 56.1872 14.5654V13.0553H57.9336Z" fill="#231F20"/>
<path d="M61.0575 10.8893H63.5917V12.3993H61.0575V15.4982H64.2483V17.0082H59.2061V6.4248H64.2483V7.93484H61.0575V10.8893Z" fill="#231F20"/>
<path d="M69.4234 17.0082C69.3183 16.7325 69.2527 16.5749 69.2527 15.7083V14.0407C69.2527 13.0558 68.885 12.6882 68.0447 12.6882H67.4012V16.9951H65.5498V6.4248H68.3335C70.2506 6.4248 71.0647 7.22578 71.0647 8.854V9.68124C71.0647 10.7711 70.6839 11.467 69.8567 11.8084V11.8347C70.7759 12.1761 71.0779 12.9639 71.0779 14.0669V15.6951C71.0779 16.2072 71.091 16.588 71.2748 16.982H69.3971L69.4234 17.0082ZM67.4144 7.93484V11.1913H68.1366C68.8194 11.1913 69.2396 10.9155 69.2396 10.0752V9.03783C69.2396 8.27625 68.9507 7.94798 68.2941 7.94798H67.4012L67.4144 7.93484Z" fill="#231F20"/>
<path d="M71.9307 6.4248H77.6426V7.93484H75.7123V17.0082H73.8609V7.93484H71.9307V6.4248Z" fill="#231F20"/>
<path d="M78.6143 6.4248H80.4657V17.0082H78.6143V6.4248Z" fill="#231F20"/>
<path d="M83.8134 11.1256H86.2032V12.6357H83.8134V17.0082H81.9619V6.4248H86.8466V7.93484H83.8134V11.1256Z" fill="#231F20"/>
<path d="M87.9111 6.4248H89.7626V17.0082H87.9111V6.4248Z" fill="#231F20"/>
<path d="M93.1102 10.8893H95.6445V12.3993H93.1102V15.4982H96.301V17.0082H91.2588V6.4248H96.301V7.93484H93.1102V10.8893Z" fill="#231F20"/>
<path d="M97.6025 6.4248H100.518C102.369 6.4248 103.275 7.34396 103.275 9.03783V14.3952C103.275 16.0891 102.369 17.0082 100.518 17.0082H97.6025V6.4248ZM99.454 7.93484V15.4982H100.491C101.082 15.4982 101.437 15.2224 101.437 14.474V8.97218C101.437 8.21059 101.082 7.94798 100.491 7.94798H99.454V7.93484Z" fill="#231F20"/>
<path d="M48.571 30.8769H51.2235V31.087C51.2235 31.7173 51.381 32.2294 51.7093 32.6102C52.0376 32.991 52.4709 33.1879 53.0224 33.1879C53.6133 33.1879 54.0728 33.0172 54.4142 32.6496C54.7556 32.2951 54.9263 31.8092 54.9263 31.2052C54.9263 30.2335 54.2435 29.5376 52.8648 29.1174C52.681 29.0649 52.5497 29.0124 52.4446 28.9861C51.2891 28.6184 50.4356 28.1063 49.871 27.4235C49.3064 26.7407 49.0306 25.9004 49.0306 24.8762C49.0306 23.458 49.4114 22.3288 50.1861 21.4753C50.9608 20.6218 51.9851 20.1885 53.2719 20.1885C54.4799 20.1885 55.4384 20.5693 56.1475 21.3309C56.8566 22.0924 57.2636 23.156 57.3424 24.5348H54.7031V24.4166C54.7031 23.9307 54.5587 23.55 54.2698 23.2479C53.9809 22.9459 53.6133 22.8015 53.1537 22.8015C52.6941 22.8015 52.3002 22.9591 52.0244 23.2611C51.7487 23.5631 51.6043 23.9833 51.6043 24.5085C51.6043 24.7317 51.6305 24.9287 51.6962 25.0994C51.7487 25.2701 51.8406 25.4277 51.9719 25.559C52.2477 25.8741 52.8517 26.1499 53.7708 26.4125C54.1779 26.5175 54.493 26.6226 54.7163 26.6882C55.7405 27.0427 56.4889 27.5417 56.9747 28.1983C57.4606 28.8548 57.7101 29.6952 57.7101 30.7062C57.7101 32.2557 57.2899 33.5031 56.4364 34.4485C55.5829 35.3939 54.4536 35.8666 53.0486 35.8666C51.7224 35.8666 50.6457 35.4071 49.8316 34.501C49.0175 33.595 48.5973 32.387 48.571 30.8901V30.8769Z" fill="#231F20"/>
<path d="M62.3965 35.5493H59.4814V20.4883H63.1843C64.1166 20.4883 64.8651 20.5408 65.4034 20.6459C65.9418 20.7509 66.3751 20.9085 66.7165 21.1448C67.3336 21.565 67.8064 22.1165 68.1609 22.8124C68.5154 23.5084 68.6861 24.2437 68.6861 25.0315C68.6861 26.4759 68.2134 27.6183 67.2811 28.4849C66.3357 29.3516 65.0752 29.7717 63.4863 29.7717H62.4096V35.5493H62.3965ZM62.3965 27.2244H63.1581C63.9722 27.2244 64.5893 27.0537 65.0226 26.686C65.456 26.3315 65.666 25.8194 65.666 25.1628C65.666 24.5063 65.4559 23.9679 65.0358 23.6397C64.6156 23.3114 63.9853 23.1407 63.1318 23.1407H62.3833V27.2244H62.3965Z" fill="#231F20"/>
<path d="M69.5811 27.9887C69.5811 27.1615 69.6861 26.3867 69.9093 25.6514C70.1325 24.9161 70.4477 24.2333 70.881 23.5899C71.6163 22.5132 72.5355 21.6728 73.6516 21.0819C74.7546 20.491 75.9757 20.2021 77.2888 20.2021C78.2736 20.2021 79.2322 20.3991 80.1382 20.7799C81.0574 21.1607 81.8715 21.7253 82.5937 22.4475C83.3421 23.196 83.9067 24.0495 84.2875 24.9818C84.6815 25.914 84.8653 26.8988 84.8653 27.9362C84.8653 28.9735 84.6815 30.024 84.3138 30.9694C83.9461 31.9148 83.4078 32.7552 82.7118 33.4774C82.0028 34.239 81.1624 34.8298 80.217 35.2369C79.2716 35.6439 78.2736 35.854 77.2363 35.854C76.1333 35.854 75.1091 35.6571 74.1768 35.25C73.2445 34.843 72.4173 34.2521 71.6951 33.4642C70.9992 32.7158 70.4739 31.8885 70.1194 30.9563C69.7649 30.024 69.5811 29.0392 69.5811 27.9887ZM72.6405 27.8837C72.6405 28.5271 72.7456 29.1311 72.9557 29.6957C73.1658 30.2603 73.4809 30.7593 73.888 31.232C74.3475 31.731 74.8596 32.1249 75.4374 32.4006C76.0151 32.6764 76.6192 32.8077 77.2363 32.8077C78.5362 32.8077 79.6261 32.335 80.5059 31.4027C81.3856 30.4704 81.8321 29.3018 81.8321 27.8968C81.8321 26.61 81.3856 25.5201 80.5059 24.6141C79.613 23.7081 78.5494 23.2485 77.302 23.2485C76.0545 23.2485 74.899 23.6949 73.993 24.601C73.087 25.507 72.6405 26.5968 72.6405 27.8968V27.8837Z" fill="#231F20"/>
<path d="M89.6035 35.5493H86.6885V20.4883H90.2207C91.3499 20.4883 92.1771 20.5277 92.7286 20.6065C93.2801 20.6852 93.7397 20.8166 94.1336 21.0004C94.974 21.3943 95.6174 21.9589 96.0639 22.6811C96.5103 23.4033 96.7335 24.2437 96.7335 25.2022C96.7335 26.3709 96.4184 27.3557 95.7881 28.1698C95.1578 28.9839 94.2912 29.496 93.2013 29.7192L96.9174 35.5624H93.4508L89.6166 28.5768V35.5624L89.6035 35.5493ZM89.6035 27.8153H90.2469C91.4287 27.8153 92.3216 27.6052 92.9256 27.1718C93.5296 26.7385 93.8448 26.1083 93.8448 25.281C93.8448 24.4538 93.5953 23.8892 93.0832 23.5084C92.5711 23.1276 91.7701 22.9437 90.6934 22.9437H89.6166V27.8153H89.6035Z" fill="#231F20"/>
<path d="M105.979 20.4883V23.1407H103.182V35.5493H100.28V23.1407H97.4834V20.4883H105.979Z" fill="#231F20"/>
<path d="M32.1163 26.0975H31.6567V25.8086H32.8648V26.0975H32.4052V27.7388H32.1163V26.0975Z" fill="white"/>
<path d="M34.4146 26.951C34.4146 26.7015 34.3884 26.3995 34.4015 26.1369C34.349 26.3732 34.2833 26.6358 34.2045 26.8722L33.9682 27.7126H33.745L33.5349 26.8853C33.4692 26.6358 33.4167 26.3732 33.3773 26.1369C33.3773 26.3863 33.3642 26.7015 33.351 26.9641L33.3116 27.7388H33.0359L33.1409 25.8086H33.5217L33.7318 26.5833C33.7843 26.8065 33.8369 27.0429 33.8763 27.253C33.9157 27.0429 33.9682 26.8065 34.0338 26.5833L34.2571 25.8086H34.6378L34.7298 27.7388H34.4409L34.4146 26.951Z" fill="white"/>
</g>
<defs>
<clipPath id="clip0_2258_1386">
<rect width="109.681" height="40.1802" fill="white" transform="translate(0.696289 0.910156)"/>
</clipPath>
</defs>
</svg>
